<svg xmlns="http://www.w3.org/2000/svg" viewBox="0 0 512 512" width="512" height="512" role="img" aria-label="Ultreia">
  <defs>
    <mask id="route-wipe" x="-96" y="-96" width="704" height="704" maskUnits="userSpaceOnUse" style="mask-type:alpha">
      <rect id="route-mask-wipe" x="-96" y="-96" width="704" height="704" fill="#fff"/>
    </mask>
  </defs>
  <g id="field">
    <image id="artwork" href="../../../resources/splash-logo.png" x="0" y="0" width="512" height="512" preserveAspectRatio="xMidYMid slice"/>
    <path id="left-ridge-cover" d="M57.7 370 L97.9 318.3 L146.9 262.3 L197.5 201.3 L224.7 182.8 L223.1 227.4 L189.3 261.2 L164.3 298.2 L117.5 316.7 L83.2 349.3 Z" fill="#0b0f0e" stroke="#0b0f0e" stroke-width="54" stroke-linecap="round" stroke-linejoin="round" opacity="0" visibility="hidden"/>
    <path id="summit-cover" d="M223.1 201.3 L279.1 128.4 L314.5 101.2 L314.5 161.1 L269.9 220.9 L248.1 217.6 Z M279.1 166.5 L310.1 185 L305.8 206.8 L280.8 226.3 L265.5 216.6 L282.9 193.2 Z" fill="#0b0f0e" stroke="#0b0f0e" stroke-width="48" stroke-linecap="round" stroke-linejoin="round" opacity="0" visibility="hidden"/>
    <path id="right-ridge-cover" d="M304.7 144.7 L439.6 288.4 L331.9 251.4 L311.8 187.2 Z" fill="#0b0f0e" stroke="#0b0f0e" stroke-width="56" stroke-linecap="round" stroke-linejoin="round" opacity="0" visibility="hidden"/>
    <path id="route-cover" d="M99.6 512 L130.6 487 L167.6 438 L211.1 390.7 L251.9 350.9 L277.5 318.8 L265.5 296.5 L230.2 265.5 L211.1 243.8 L222 223.1 L254.6 206.8 L281.8 187.2 L298.2 163.2 L317.2 174.1 L310.7 209.5 L275.3 231.8 L249.2 244.8 L277.5 262.3 L321 282.9 L352.6 311.2 L328.1 340.1 L287.3 378.2 L246.5 424.4 L205.7 473.4 L176.3 512 Z" fill="#0b0f0e" stroke="#0b0f0e" stroke-width="62" stroke-linecap="round" stroke-linejoin="round" opacity="0" visibility="hidden" mask="url(#route-wipe)"/>
  </g>
</svg>
